<?xml version="1.0" standalone="no"?>
<!DOCTYPE svg PUBLIC "-//W3C//DTD SVG 20010904//EN"
 "http://www.w3.org/TR/2001/REC-SVG-20010904/DTD/svg10.dtd">
<svg version="1.0" xmlns="http://www.w3.org/2000/svg"
 width="639.000000pt" height="639.000000pt" viewBox="0 0 639.000000 639.000000"
 preserveAspectRatio="xMidYMid meet">
<metadata>
Created by potrace 1.14, written by Peter Selinger 2001-2017
</metadata>
<g transform="translate(0.000000,639.000000) scale(0.100000,-0.100000)"
fill="#000000" stroke="none">
<path d="M2995 5832 c-3 -3 -22 -6 -42 -8 -71 -4 -148 -15 -209 -29 -34 -8
-73 -16 -85 -19 -98 -18 -242 -66 -453 -149 -28 -11 -171 -83 -246 -123 -19
-11 -57 -36 -84 -57 -27 -20 -55 -37 -62 -37 -7 0 -14 -3 -16 -7 -1 -5 -39
-35 -83 -67 -84 -62 -116 -91 -273 -243 -52 -51 -99 -93 -103 -93 -5 0 -9 -6
-9 -12 0 -7 -17 -32 -38 -55 -65 -74 -113 -137 -144 -188 -16 -27 -49 -81 -73
-120 -60 -96 -136 -240 -159 -300 -77 -207 -142 -413 -161 -516 -3 -13 -7 -35
-10 -49 -2 -14 -7 -52 -10 -85 -3 -33 -8 -87 -12 -120 -8 -67 -8 -349 0 -435
5 -58 15 -145 23 -195 3 -16 7 -47 9 -68 2 -21 7 -42 10 -48 4 -5 8 -21 11
-35 3 -14 12 -45 20 -67 8 -23 20 -58 26 -77 53 -180 146 -417 190 -482 10
-14 18 -29 18 -33 0 -3 18 -33 40 -66 22 -33 40 -63 40 -66 0 -2 13 -23 28
-46 16 -23 41 -61 57 -84 15 -24 32 -43 37 -43 5 0 12 -9 16 -19 10 -27 101
-131 202 -229 145 -142 166 -162 175 -162 4 0 18 -11 31 -25 13 -14 27 -25 33
-25 5 0 11 -3 13 -7 4 -10 226 -161 276 -188 21 -11 38 -23 40 -27 2 -5 8 -8
13 -8 5 0 50 -20 101 -44 51 -24 115 -52 143 -61 27 -9 54 -20 60 -24 10 -8
90 -36 90 -32 0 1 16 -5 37 -13 31 -13 74 -25 148 -41 8 -2 53 -13 100 -24 47
-12 108 -24 135 -26 28 -2 61 -7 75 -11 14 -4 142 -8 285 -9 265 -2 373 8 570
55 28 6 59 14 71 16 12 2 40 10 63 18 22 9 41 13 41 11 0 -2 59 20 130 50 72
30 130 51 130 48 0 -3 7 1 16 8 9 7 21 14 28 15 28 4 182 87 273 148 56 36
105 66 109 66 5 0 20 10 34 23 14 12 59 48 100 79 125 95 335 309 424 433 16
22 32 42 36 45 9 6 100 146 100 153 0 3 16 29 35 59 61 91 183 356 191 413 1
11 21 72 44 135 55 154 72 230 95 445 3 33 8 74 10 90 9 69 3 431 -9 500 -4
22 -9 58 -11 80 -2 22 -7 51 -10 65 -2 14 -10 50 -16 80 -29 145 -150 477
-222 610 -90 166 -201 343 -236 374 -11 11 -21 25 -21 32 0 7 -3 14 -7 16 -5
2 -35 34 -68 72 -33 38 -80 89 -105 112 -25 24 -85 81 -135 128 -49 47 -95 86
-100 86 -6 0 -27 15 -47 34 -20 19 -66 52 -102 73 -36 20 -66 41 -66 45 0 4
-5 8 -12 8 -6 0 -21 8 -32 19 -12 10 -50 33 -86 52 -36 19 -67 36 -70 40 -8 8
-69 35 -145 63 -38 15 -80 31 -92 36 -51 23 -115 46 -153 55 -3 1 -12 5 -20 8
-22 9 -125 37 -156 43 -14 3 -54 11 -88 19 -33 7 -86 17 -116 21 -30 3 -68 9
-85 11 -40 7 -494 11 -500 5z m-455 -703 c52 -6 106 -13 120 -14 14 -2 25 -4
25 -5 0 -1 35 -7 95 -14 165 -20 346 -79 577 -188 23 -11 46 -20 50 -21 4 0
49 -24 98 -52 133 -76 135 -77 192 -117 29 -21 56 -38 60 -38 4 0 30 -23 58
-50 27 -28 53 -50 59 -50 18 0 296 -291 296 -310 0 -5 3 -10 8 -12 10 -4 100
-130 131 -183 32 -56 92 -173 91 -180 0 -3 7 -19 15 -35 9 -17 13 -30 10 -30
-3 0 1 -10 9 -22 8 -13 17 -35 20 -50 2 -14 10 -37 17 -50 7 -12 11 -23 10
-23 -2 0 2 -20 9 -45 6 -24 13 -58 15 -75 2 -16 4 -30 5 -30 3 0 10 -37 15
-75 3 -19 10 -66 15 -105 21 -143 27 -301 16 -405 -14 -140 -18 -168 -23 -195
-3 -16 -7 -41 -8 -55 -1 -14 -6 -41 -10 -60 -4 -19 -9 -44 -10 -56 -2 -11 -8
-47 -15 -80 -7 -32 -13 -63 -14 -69 -10 -49 -78 -258 -102 -312 -8 -17 -14
-34 -14 -38 0 -3 -12 -27 -27 -53 -15 -25 -28 -51 -29 -58 -1 -6 -21 -43 -45
-83 -24 -39 -53 -88 -65 -108 -11 -20 -31 -46 -42 -58 -12 -13 -22 -27 -22
-32 0 -14 -65 -106 -104 -145 -35 -36 -39 -37 -89 -33 -29 3 -61 7 -72 10 -11
2 -42 7 -70 10 -27 4 -60 8 -71 10 -33 5 -128 17 -139 17 -5 0 -17 4 -26 9 -9
4 -31 11 -50 14 -37 6 -135 32 -159 42 -8 3 -17 7 -20 7 -21 4 -103 32 -137
47 -24 11 -45 19 -48 19 -2 0 -29 11 -59 25 -30 14 -60 25 -65 25 -6 0 -11 5
-11 11 0 5 -4 8 -9 4 -5 -3 -12 -1 -16 4 -3 5 -20 17 -38 26 -17 10 -57 30
-87 47 -128 68 -424 278 -469 332 -9 10 -27 28 -40 40 -13 12 -31 29 -40 39
-9 10 -40 44 -68 75 -29 31 -53 60 -53 64 0 5 -18 25 -40 47 -22 21 -40 43
-40 48 0 4 -21 38 -48 74 -47 65 -169 290 -175 325 -2 11 -10 33 -16 49 -7 17
-14 35 -15 40 -1 6 -12 42 -24 80 -12 39 -24 84 -27 102 -3 18 -10 44 -15 59
-6 15 -8 29 -6 31 3 3 0 17 -6 32 -5 14 -12 46 -14 71 -3 25 -9 70 -14 100 -9
55 -6 363 4 410 3 14 7 44 10 67 2 23 7 46 10 51 3 6 8 25 11 43 2 19 11 58
19 87 8 29 14 53 14 55 -1 7 43 141 53 158 6 11 12 30 15 42 4 26 135 290 197
397 76 133 82 143 100 159 9 8 17 19 17 24 0 4 4 13 10 20 5 7 26 32 46 57 20
25 51 64 70 87 39 46 25 45 214 22z"/>
</g>
</svg>
